<svg width="1038" height="1037" viewBox="0 0 1038 1037" fill="none" xmlns="http://www.w3.org/2000/svg">
<g clip-path="url(#clip0_161_134)">
<path d="M977.56 645.02C982.77 676.02 973.2 701.66 948.56 721.32C933.56 733.32 916.09 739.65 897.4 742.89C856.11 750.06 816.86 742.57 778.97 725.89C774.03 723.72 769.22 721.24 764.35 718.89L763.53 719.66L767.24 724.94C787.24 753.3 800.54 784.44 805.52 818.94C808.72 841.14 807.82 863.14 800.72 884.64C796.57 897.22 790.41 908.64 781.32 918.38C765.05 935.75 744.76 943.38 721.17 942.72C706.8 942.33 693.17 938.66 680.11 932.89C657.83 923.05 638.89 908.61 622.42 890.8C599.307 865.963 582.172 836.176 572.32 803.71C571.863 802.01 571.082 800.414 570.02 799.01C569.8 800.07 569.5 801.13 569.38 802.21C565.375 838.689 552.312 873.587 531.38 903.73C519.48 920.92 505.16 935.73 487.64 947.31C472.55 957.25 456.26 964.1 438.01 965.31C411.88 967.05 390.38 957.54 373.32 937.91C359.99 922.58 352.65 904.33 348.32 884.72C341.71 854.64 343.81 824.79 350.87 795.09C351.28 793.35 351.68 791.61 352.18 789.43C349.66 789.51 348.44 791.21 347 792.29C327 807.38 305.63 819.93 282 828.51C266 834.32 249.63 838.2 232.48 837.66C227.581 837.536 222.701 837.005 217.89 836.07C190.27 830.46 171.62 810.46 167.3 782.25C164.71 765.34 167.03 748.94 172.17 732.82C178.055 714.825 186.922 697.946 198.4 682.89C213.71 662.518 232.184 644.729 253.12 630.2C254.6 629.2 256.05 628.07 257.51 626.99C257.61 626.91 257.61 626.68 257.88 625.74C255.74 626.11 253.88 626.4 252.07 626.74C222.01 632.53 191.84 633.45 161.59 628.37C143.19 625.28 125.59 619.8 109.13 610.82C97.0699 604.22 86.3099 595.98 77.5299 585.3C56.3899 559.5 54.2099 526.46 71.8199 498.07C78.4617 487.611 86.9297 478.432 96.8199 470.97C116.26 455.97 138.31 446.44 161.96 440.4C195.127 431.821 229.689 430.049 263.56 435.19C264.82 435.38 266.08 435.52 267.35 435.64C267.825 435.605 268.294 435.518 268.75 435.38C267.97 433.26 265.94 432.83 264.41 431.94C241.042 418.52 220.104 401.255 202.48 380.87C186.58 362.34 174.03 341.87 166.86 318.36C161.59 301.09 159.57 283.54 163.07 265.63C165.67 252.32 171.17 240.4 180.87 230.72C195.38 216.22 213.41 211.57 233.28 212.72C251.87 213.72 269.28 219.49 286.07 227.1C305.07 235.68 322.39 246.91 338.72 259.78C340.279 261.156 342.103 262.197 344.08 262.84C343.66 261.14 343.34 259.41 342.82 257.74C335.394 234.126 332.119 209.403 333.14 184.67C334.14 163.05 338.42 142.14 348.34 122.75C351.773 115.946 355.845 109.484 360.5 103.45C383.27 74.3099 417.5 64.8199 452.13 77.6199C467.13 83.1799 480.25 91.8599 492.07 102.56C517.62 125.67 534.5 154.39 545.53 186.68C549.33 197.8 551.93 209.34 555.18 221.06C555.7 219.53 556.24 218.06 556.66 216.63C567.16 179.57 585.06 146.76 612.84 119.76C628.54 104.49 646.48 92.6799 667.64 86.2899C681.97 81.9699 696.51 80.8399 711.21 84.1999C732.34 89.0299 748.21 101.36 759.87 119.26C769.79 134.44 775.32 151.31 777.65 169.14C784.65 222.77 770.52 271.28 741.34 316.01C740.15 317.83 738.9 319.6 736.97 322.42C738.377 321.956 739.751 321.395 741.08 320.74C766.934 304.345 795.938 293.553 826.22 289.06C854.85 284.74 883.16 285.7 910.51 296.06C918.836 299.186 926.796 303.21 934.25 308.06C966.11 329.01 978.12 363.5 966.8 399.9C962.678 412.724 956.449 424.772 948.37 435.55C932.53 457.19 912.28 473.73 889.11 486.9C866.339 499.883 841.453 508.739 815.6 513.06C814.25 513.29 812.95 513.78 810.91 514.35C829.62 519.09 847.81 522.45 865.07 529.23C898.79 542.47 928.33 561.67 951.29 590.1C964.38 606.27 974.07 624.25 977.56 645.02ZM938.11 713.23C961.04 696.45 969.81 673.82 964.51 645.94C960.81 626.48 950.93 610.08 938.12 595.35C919.19 573.6 896.02 557.61 869.69 546.19C832.13 529.89 793.23 523.95 752.5 531.82C752.241 532.261 752.026 532.726 751.86 533.21C751.75 533.925 751.68 534.647 751.65 535.37C750.258 557.506 745.391 579.286 737.23 599.91C731.268 615.33 723.494 629.986 714.07 643.57C712.34 646.03 712.07 647.99 713.82 650.4C716.27 653.78 718.41 657.4 720.97 660.67C735.05 678.67 752.42 692.85 772.17 704.09C808.74 724.89 847.72 735.63 890.1 730.9C907.49 728.96 923.82 723.65 938.11 713.23ZM953.72 398.57C957.83 386.7 959.31 374.57 957.04 362.1C953.72 343.95 943.56 330.27 928.67 319.85C916.73 311.5 903.36 306.51 889.17 303.62C861.95 298.1 834.97 299.94 808.29 306.9C772.09 316.35 740.15 333.52 713.61 360.19C712.106 361.49 710.864 363.065 709.95 364.83C707.78 370.2 706.07 375.75 704.02 381.17C703.02 383.71 703.68 385.59 705.33 387.62C708.33 391.27 711.15 395.06 713.83 398.93C732.404 425.734 744.596 456.435 749.47 488.68C750.27 493.84 750.24 493.89 755.24 494.99C766.048 497.263 777.077 498.32 788.12 498.14C805.063 498.081 821.919 495.726 838.23 491.14C871.92 481.85 901.95 466.02 926.69 440.96C938.7 428.73 948.08 414.83 953.72 398.57ZM786.44 885.28C792.58 870.28 794.19 854.39 793.5 838.28C792.39 812.28 785.63 787.77 774.3 764.51C756.3 727.51 730.6 697.51 694.69 676.71C692.99 675.71 691.22 674.84 689.77 674.07C689.264 674.198 688.777 674.389 688.32 674.64C687.09 675.71 685.9 676.83 684.7 677.94C663.442 697.871 638.23 713.107 610.7 722.66C603.87 725.04 596.82 726.78 589.86 728.79C585.34 730.09 583.99 731.79 583.86 736.37C583.847 737.638 583.753 738.904 583.58 740.16C581.68 752.68 582.38 765.16 584.32 777.58C590.08 814.52 605.43 847.18 628.83 876.14C639.763 889.758 652.749 901.593 667.32 911.22C683.02 921.57 700.01 928.64 718.98 929.8C742.98 931.28 762.8 922.85 776.98 902.99C780.799 897.467 783.973 891.525 786.44 885.28ZM761.36 230.28C766.91 206.28 768.06 182.12 762.36 157.96C758.36 141.06 751.25 125.71 738.68 113.36C727.314 101.86 711.848 95.3424 695.68 95.2399C678.6 94.9099 663.2 100.33 648.76 108.9C632.76 118.38 619.46 130.9 608.02 145.41C581.78 178.68 567.02 216.59 563.32 258.71C561.83 275.523 562.841 292.464 566.32 308.98C568.32 309.39 569.85 309.83 571.45 310.05C586.723 312.222 601.687 316.189 616.03 321.87C634.142 328.935 651.182 338.486 666.66 350.25C669.66 352.53 672.33 353.25 675.6 351.6C680.29 349.26 685.32 347.38 689.53 344.37C695.766 339.986 701.638 335.107 707.09 329.78C735.07 302.03 752.52 268.41 761.36 230.26V230.28ZM616.53 703.59C701.18 665.88 748.92 575.78 730.53 485.59C706.3 366.68 585.63 302.37 478.69 336.72C395.82 363.34 340.56 438.14 340.55 523.74C340.438 539.555 342.33 555.32 346.18 570.66C356.48 611.49 377.18 645.93 409.71 672.96C424.03 684.87 439.99 694.2 456.62 702.46C461.47 704.87 466.1 707.88 471.16 709.7C491.366 716.92 512.643 720.689 534.1 720.85C562.506 721.176 590.64 715.285 616.53 703.59ZM498.93 920.69C541.82 876.14 559.87 822.46 555.99 761.14C555.44 752.35 553.13 743.67 551.55 734.46C549.41 734.46 548.33 734.46 547.26 734.46C536.57 734.04 525.85 733.98 515.2 733.12C492.2 731.25 470.71 723.34 449.2 715.88C443.44 713.88 438.08 710.76 432.5 708.14C425.01 713.14 417.28 717.52 411.31 724.31C408.55 727.45 405.38 730.23 402.79 733.48C395.11 743.13 387.62 752.94 380.08 762.7C379.557 763.441 379.114 764.235 378.76 765.07C362.11 800.77 354.54 837.99 360.47 877.32C363.25 895.73 369.57 912.89 381.47 927.46C399.32 949.29 422.22 956.84 449.58 950.23C469.01 945.53 485.27 934.89 498.93 920.69ZM536.93 286.42C542.15 260.93 541.21 235.49 535.79 210.18C529.04 178.63 516.31 149.82 495.53 124.87C482.53 109.27 467.25 96.6699 447.98 89.5699C424.64 80.9799 402.68 83.2099 382.8 98.8999C373.09 106.57 366 116.41 360.51 127.44C352.8 142.93 348.82 159.44 347.45 176.61C344.37 215.2 352.22 251.7 369.29 286.31C370.502 288.747 371.931 291.069 373.56 293.25C378.88 300.38 384.3 307.43 389.74 314.47C394.733 321.173 400.571 327.203 407.11 332.41C411.37 335.69 415.05 339.73 419.38 343.8C435.524 332.765 453.149 324.072 471.73 317.98C490.579 311.88 510.182 308.421 529.98 307.7C533.46 300.87 535.39 293.7 536.89 286.42H536.93ZM402.63 692.63C403.11 688.84 402.44 686.41 399.63 683.63C391.05 675.29 382.53 666.82 374.71 657.78C362.3 643.43 352.66 627.19 344.47 609.67C343.087 609.532 341.693 609.532 340.31 609.67C331.84 611.67 323.18 613.06 314.97 615.83C281.7 627.04 252.97 645.83 227.97 670.24C210.9 686.9 197.05 705.88 187.71 727.94C181.39 742.86 178.15 758.38 179.43 774.68C181.51 801.3 198.19 819.88 224.17 824.26C238.79 826.72 253.17 824.8 267.24 820.69C301.73 810.62 331.42 792.15 357.75 768.05C359.92 766.05 361.4 763.05 362.61 760.33C371.06 741.08 381.61 723.11 395.55 707.33C399.43 702.98 401.88 698.48 402.63 692.63ZM393.89 364.14C395.14 362.85 396.79 361.82 396.01 359.59C392.39 349.32 389.33 338.77 382.17 330.22C374.245 320.749 367.133 310.627 360.91 299.96C358.897 296.519 356.513 293.31 353.8 290.39C339.188 274.682 322.517 261.024 304.24 249.79C291.24 241.79 277.6 234.94 263 230.23C249.92 226.04 236.57 223.83 222.82 225.14C199.96 227.34 183.24 241.36 177.12 263.47C174.06 274.52 173.94 285.72 175.63 296.96C178.424 314.98 185.038 332.195 195.03 347.45C228.41 399.39 275.85 431.81 335.24 447.33C336.251 447.503 337.274 447.6 338.3 447.62C339.25 445.31 340.01 443.47 340.75 441.62C349.303 419.965 361.436 399.902 376.64 382.27C382.06 376 388.09 370.19 393.89 364.14ZM327.82 487.94C328.15 481.34 325.91 475.49 320.13 471.63C310.537 465.363 300.066 460.558 289.06 457.37C245.36 444.14 201.44 444.14 157.47 455.91C140.37 460.5 124.17 467.35 109.52 477.47C97.8699 485.5 87.8199 495.14 80.9299 507.64C68.3099 530.64 69.7699 552.88 85.1299 574.11C91.5999 583.06 99.9899 589.98 109.32 595.78C121.598 603.249 134.96 608.768 148.93 612.14C181.14 620.3 213.6 620.39 246.19 614.85C269.6 610.85 292.09 603.99 313.06 592.66C315.917 591.114 318.513 589.126 320.75 586.77C324.58 582.68 327.98 578.18 331.85 573.5C327.35 555.26 324.85 536.94 325.52 518.34C325.87 508.14 327.32 498.07 327.82 487.94Z" fill="black"/>
<path d="M964.51 645.94C969.81 673.82 961.04 696.45 938.11 713.23C923.86 723.65 907.49 728.96 890.11 730.9C847.73 735.63 808.75 724.9 772.18 704.09C752.43 692.85 735.06 678.65 720.98 660.67C718.42 657.39 716.28 653.78 713.83 650.4C712.08 647.99 712.35 646.03 714.08 643.57C723.504 629.986 731.278 615.33 737.24 599.91C745.402 579.286 750.268 557.506 751.66 535.37C751.69 534.647 751.76 533.925 751.87 533.21C752.037 532.726 752.251 532.261 752.51 531.82C793.24 523.95 832.14 529.89 869.7 546.19C896.03 557.61 919.2 573.6 938.13 595.35C950.93 610.08 960.82 626.48 964.51 645.94Z" fill="#FFDDFF"/>
<path d="M957.04 362.14C959.31 374.57 957.83 386.74 953.72 398.61C948.08 414.87 938.72 428.77 926.72 440.94C901.98 466 871.95 481.83 838.26 491.12C821.949 495.706 805.093 498.061 788.15 498.12C777.109 498.317 766.08 497.277 755.27 495.02C750.27 493.92 750.27 493.87 749.5 488.71C744.618 456.452 732.413 425.74 713.82 398.93C711.14 395.06 708.3 391.27 705.32 387.62C703.67 385.62 703.05 383.71 704.01 381.17C706.01 375.75 707.77 370.17 709.94 364.83C710.854 363.065 712.096 361.49 713.6 360.19C740.14 333.52 772.08 316.35 808.28 306.9C834.96 299.9 861.94 298.1 889.16 303.62C903.35 306.51 916.72 311.5 928.66 319.85C943.56 330.27 953.72 343.95 957.04 362.14Z" fill="#FFDDFF"/>
<path d="M793.5 838.27C794.19 854.39 792.58 870.27 786.44 885.27C783.976 891.511 780.805 897.45 776.99 902.97C762.85 922.83 743.08 931.26 718.99 929.78C699.99 928.62 682.99 921.55 667.33 911.2C652.775 901.576 639.803 889.748 628.88 876.14C605.48 847.14 590.13 814.52 584.37 777.58C582.43 765.16 581.73 752.68 583.63 740.16C583.803 738.904 583.897 737.638 583.91 736.37C584.03 731.78 585.38 730.09 589.91 728.79C596.91 726.79 603.91 725.04 610.75 722.66C638.28 713.107 663.492 697.871 684.75 677.94C685.95 676.83 687.14 675.71 688.37 674.64C688.827 674.39 689.315 674.198 689.82 674.07C691.27 674.84 693.04 675.73 694.74 676.71C730.65 697.47 756.35 727.55 774.35 764.51C785.63 787.76 792.39 812.31 793.5 838.27Z" fill="#FFDDFF"/>
<path d="M762.4 157.94C768.06 182.1 766.91 206.3 761.4 230.26C752.56 268.41 735.11 302.03 707.15 329.76C701.698 335.087 695.826 339.966 689.59 344.35C685.38 347.35 680.35 349.24 675.66 351.58C672.39 353.21 669.66 352.51 666.72 350.23C651.242 338.466 634.202 328.915 616.09 321.85C601.747 316.169 586.783 312.202 571.51 310.03C569.91 309.81 568.34 309.37 566.38 308.96C562.901 292.444 561.89 275.503 563.38 258.69C567.1 216.57 581.84 178.69 608.08 145.39C619.52 130.88 632.85 118.39 648.82 108.88C663.26 100.31 678.66 94.8799 695.74 95.2199C711.908 95.3224 727.375 101.84 738.74 113.34C751.29 125.69 758.44 141.04 762.4 157.94Z" fill="#FFDDFF"/>
<path d="M730.54 485.6C748.92 575.78 701.18 665.88 616.54 703.6C590.651 715.295 562.517 721.186 534.11 720.86C512.653 720.699 491.376 716.93 471.17 709.71C466.11 707.89 461.48 704.88 456.63 702.47C440 694.21 424.04 684.88 409.72 672.97C377.2 645.97 356.49 611.5 346.19 570.67C342.34 555.33 340.449 539.565 340.56 523.75C340.56 438.11 395.86 363.35 478.71 336.75C585.64 302.38 706.31 366.69 730.54 485.6Z" fill="#EE82EE"/>
<path d="M555.99 761.14C559.87 822.45 541.82 876.14 498.93 920.68C485.27 934.88 469.01 945.52 449.56 950.23C422.2 956.84 399.3 949.29 381.45 927.46C369.53 912.89 363.21 895.73 360.45 877.32C354.52 837.99 362.09 800.77 378.74 765.07C379.094 764.235 379.537 763.441 380.06 762.7C387.6 752.94 395.06 743.13 402.77 733.48C405.36 730.23 408.53 727.48 411.29 724.31C417.29 717.52 424.99 713.09 432.48 708.14C438.06 710.76 443.42 713.88 449.18 715.88C470.73 723.34 492.23 731.25 515.18 733.12C525.83 733.98 536.55 734.04 547.24 734.46C548.31 734.46 549.39 734.46 551.53 734.46C553.13 743.68 555.44 752.36 555.99 761.14Z" fill="#FFDDFF"/>
<path d="M535.75 210.14C541.17 235.45 542.11 260.89 536.89 286.38C535.39 293.66 533.46 300.83 529.89 307.66C510.092 308.381 490.489 311.84 471.64 317.94C453.059 324.032 435.434 332.725 419.29 343.76C414.96 339.69 411.29 335.65 407.02 332.37C400.481 327.163 394.643 321.134 389.65 314.43C384.21 307.43 378.79 300.34 373.47 293.21C371.841 291.03 370.412 288.707 369.2 286.27C352.13 251.66 344.28 215.16 347.36 176.57C348.73 159.44 352.71 142.89 360.42 127.4C365.91 116.4 373 106.53 382.71 98.8601C402.59 83.1701 424.55 80.9401 447.89 89.5301C467.16 96.6301 482.46 109.23 495.44 124.83C516.27 149.82 529 178.63 535.75 210.14Z" fill="#FFDDFF"/>
<path d="M399.6 683.64C402.44 686.41 403.11 688.84 402.6 692.64C401.85 698.49 399.4 702.99 395.5 707.4C381.5 723.17 371.01 741.14 362.56 760.4C361.35 763.17 359.87 766.13 357.7 768.12C331.37 792.22 301.7 810.69 267.19 820.76C253.12 824.87 238.74 826.76 224.12 824.33C198.12 819.95 181.46 801.33 179.38 774.75C178.1 758.45 181.38 742.93 187.66 728.01C197 705.95 210.85 687.01 227.92 670.31C252.92 645.88 281.64 627.11 314.92 615.9C323.13 613.13 331.79 611.7 340.26 609.74C341.643 609.602 343.037 609.602 344.42 609.74C352.61 627.26 362.25 643.5 374.66 657.85C382.5 666.83 391.02 675.3 399.6 683.64Z" fill="#FFDDFF"/>
<path d="M396.01 359.63C396.79 361.86 395.14 362.89 393.89 364.18C388.09 370.18 382.06 376 376.59 382.29C361.386 399.922 349.253 419.985 340.7 441.64C339.96 443.49 339.2 445.33 338.25 447.64C337.224 447.62 336.201 447.523 335.19 447.35C275.82 431.83 228.36 399.41 194.98 347.47C184.988 332.215 178.374 315 175.58 296.98C173.89 285.74 174.01 274.54 177.07 263.49C183.19 241.38 199.91 227.36 222.77 225.16C236.57 223.83 249.92 226.04 263 230.27C277.6 234.98 291.2 241.83 304.24 249.83C322.524 261.063 339.202 274.72 353.82 290.43C356.533 293.35 358.917 296.559 360.93 300C367.153 310.667 374.265 320.789 382.19 330.26C389.33 338.81 392.39 349.36 396.01 359.63Z" fill="#FFDDFF"/>
<path d="M320.14 471.63C325.92 475.49 328.14 481.34 327.83 487.94C327.32 498.07 325.83 508.17 325.52 518.31C324.86 536.91 327.35 555.23 331.85 573.47C327.98 578.15 324.58 582.65 320.75 586.74C318.513 589.096 315.917 591.084 313.06 592.63C292.06 603.96 269.6 610.84 246.19 614.82C213.6 620.36 181.14 620.27 148.93 612.11C134.962 608.747 121.599 603.239 109.32 595.78C99.9899 589.98 91.5999 583.06 85.1299 574.11C69.8199 552.88 68.3099 530.63 80.9299 507.64C87.8199 495.14 97.8699 485.5 109.52 477.47C124.17 467.35 140.37 460.47 157.52 455.91C201.52 444.12 245.41 444.11 289.12 457.37C300.108 460.562 310.562 465.368 320.14 471.63Z" fill="#FFDDFF"/>
<path d="M977.56 645.02C974.07 624.25 964.38 606.27 951.31 590.02C928.31 561.59 898.81 542.39 865.09 529.15C847.83 522.37 829.64 519.01 810.93 514.27C812.93 513.7 814.27 513.21 815.62 512.98C841.473 508.66 866.359 499.803 889.13 486.82C912.3 473.65 932.55 457.11 948.39 435.47C956.464 424.707 962.693 412.676 966.82 399.87C978.14 363.47 966.13 328.98 934.27 308.03C926.816 303.18 918.856 299.156 910.53 296.03C883.18 285.66 854.87 284.7 826.24 289.03C795.958 293.523 766.954 304.315 741.1 320.71C739.771 321.365 738.397 321.926 736.99 322.39C738.92 319.57 740.17 317.8 741.36 315.98C770.54 271.25 784.67 222.74 777.67 169.11C775.34 151.28 769.81 134.41 759.89 119.23C748.18 101.32 732.36 88.9901 711.23 84.1401C696.53 80.7801 681.99 81.9101 667.66 86.2301C646.5 92.6201 628.56 104.43 612.86 119.7C585.08 146.7 567.18 179.51 556.68 216.57C556.26 218.04 555.68 219.47 555.2 221C551.95 209.28 549.35 197.74 545.55 186.62C534.55 154.33 517.64 125.62 492.09 102.5C480.27 91.8201 467.18 83.1401 452.15 77.5801C417.48 64.7801 383.29 74.2701 360.52 103.41C355.865 109.444 351.793 115.906 348.36 122.71C338.44 142.1 334.11 163.01 333.16 184.63C332.132 209.362 335.401 234.085 342.82 257.7C343.34 259.37 343.66 261.1 344.08 262.8C342.103 262.157 340.279 261.116 338.72 259.74C322.39 246.87 305.04 235.64 286.07 227.06C269.26 219.45 251.87 213.71 233.28 212.68C213.41 211.57 195.38 216.22 180.87 230.68C171.17 240.36 165.67 252.28 163.07 265.59C159.57 283.5 161.59 301.05 166.86 318.32C174.03 341.83 186.58 362.32 202.48 380.83C220.105 401.215 241.042 418.48 264.41 431.9C265.94 432.79 267.97 433.22 268.75 435.34C268.294 435.479 267.825 435.566 267.35 435.6C266.08 435.48 264.82 435.34 263.56 435.15C229.689 430.009 195.127 431.781 161.96 440.36C138.31 446.36 116.26 455.9 96.82 470.93C86.9298 478.392 78.4618 487.571 71.82 498.03C54.17 526.42 56.35 559.46 77.59 585.28C86.37 595.96 97.13 604.2 109.19 610.8C125.62 619.8 143.25 625.26 161.65 628.35C191.9 633.43 222.07 632.51 252.13 626.72C253.96 626.37 255.8 626.08 257.94 625.72C257.67 626.66 257.67 626.89 257.57 626.97C256.11 628.05 254.66 629.14 253.18 630.18C232.244 644.709 213.77 662.498 198.46 682.87C186.982 697.927 178.115 714.805 172.23 732.8C167.09 748.92 164.77 765.32 167.36 782.23C171.68 810.44 190.36 830.44 217.95 836.05C222.761 836.985 227.641 837.517 232.54 837.64C249.69 838.18 266.08 834.3 282.06 828.49C305.64 819.91 327.06 807.36 347.06 792.27C348.5 791.19 349.72 789.49 352.24 789.41C351.74 791.59 351.34 793.33 350.93 795.07C343.87 824.77 341.77 854.62 348.38 884.7C352.68 904.31 360.02 922.56 373.38 937.89C390.44 957.52 411.94 967.03 438.07 965.29C456.32 964.07 472.61 957.22 487.7 947.29C505.22 935.74 519.54 920.9 531.44 903.71C552.372 873.567 565.435 838.669 569.44 802.19C569.56 801.11 569.86 800.05 570.08 798.99C571.142 800.394 571.923 801.99 572.38 803.69C582.232 836.156 599.367 865.943 622.48 890.78C638.95 908.59 657.89 923.03 680.17 932.87C693.25 938.64 706.86 942.31 721.23 942.7C744.82 943.36 765.11 935.7 781.38 918.36C790.47 908.66 796.63 897.2 800.78 884.62C807.88 863.12 808.78 841.12 805.58 818.92C800.58 784.46 787.32 753.32 767.3 724.92L763.59 719.64L764.41 718.87C769.28 721.2 774.09 723.68 779.03 725.87C816.92 742.53 856.17 750.02 897.46 742.87C916.15 739.63 933.65 733.25 948.62 721.3C973.2 701.66 982.82 676.02 977.56 645.02Z" stroke="white" stroke-width="10"/>
</g>
<defs>
<clipPath id="clip0_161_134">
<rect width="928.93" height="903.52" fill="white" transform="translate(55 67)"/>
</clipPath>
</defs>
</svg>
