<svg width="371" height="227" viewBox="0 0 371 227" fill="none" xmlns="http://www.w3.org/2000/svg">
<g clip-path="url(#clip0_161_152)">
<path d="M315.31 94.8801C321.44 119.38 320.38 143.48 310.45 166.88C308.279 171.87 305.598 176.622 302.45 181.06C300.005 184.438 297.089 187.449 293.79 190C280.68 200.4 264.93 201.16 250.64 192.41C243.36 187.94 237.85 181.75 233.32 174.62C224.23 160.32 220.19 144.43 219.05 127.73C218.12 116.122 219.083 104.44 221.9 93.1401C222.041 92.3903 222.131 91.6319 222.17 90.8701C213.56 85.5301 206.4 78.8001 201.39 69.8701C209.79 73.0001 216.39 79.1001 224.39 83.6901L226.5 79.6001C213.04 72.1901 204.45 61.6001 203.55 44.6001C207.71 50.7001 210.69 56.2901 214.84 60.8101C218.99 65.3301 224.21 68.6601 228.74 72.3301C232.04 70.7901 231.61 69.2101 230.46 67.1901C227.86 62.6201 225.19 58.0701 223.03 53.2901C220.45 47.9438 219.411 41.9841 220.03 36.0801C223.96 37.0801 225.36 40.4501 227.63 42.7801C229.9 45.1101 232.28 47.8701 234.56 50.4601C236.84 53.0501 239 55.5701 241.29 58.2201C248.44 47.3901 262.02 42.4101 274.97 45.5401C283.127 47.5851 290.501 51.9885 296.17 58.2001C306.1 68.5301 311.91 81.1201 315.31 94.8801ZM301.55 90.8801C299.369 84.0197 296.053 77.5737 291.74 71.8101C288.274 66.9149 283.762 62.8532 278.53 59.9201C272.31 56.5901 265.8 55.7601 259.21 58.4801C255.13 60.1801 251.31 62.4801 246.91 64.7701C261.72 80.7601 280.57 87.1001 301.58 90.8901L301.55 90.8801ZM291.9 119.88C292.535 119.875 293.162 119.744 293.746 119.495C294.329 119.246 294.858 118.883 295.301 118.428C295.743 117.974 296.091 117.436 296.324 116.845C296.558 116.255 296.672 115.625 296.66 114.99C296.65 114.309 296.5 113.637 296.221 113.015C295.941 112.394 295.538 111.836 295.035 111.376C294.532 110.916 293.94 110.564 293.296 110.341C292.652 110.119 291.97 110.03 291.29 110.08C290.655 110.058 290.021 110.166 289.429 110.399C288.838 110.632 288.3 110.984 287.85 111.433C287.4 111.882 287.047 112.419 286.813 113.01C286.579 113.601 286.469 114.235 286.49 114.87C286.589 116.241 287.207 117.524 288.217 118.456C289.228 119.389 290.555 119.901 291.93 119.89L291.9 119.88ZM262.4 158.34C274.15 155.34 278.9 149.93 277.65 141.18C277.069 136.622 274.821 132.44 271.34 129.44C266.62 125.35 261.09 124.71 255.02 126.44C253.632 116.534 253.383 106.502 254.28 96.5401C254.43 94.8001 255.13 93.0501 253.28 91.5401C248.52 87.6701 243.89 83.6401 239.19 79.6701C238.99 79.8401 238.62 80.0001 238.49 80.2801C237.939 81.4218 237.461 82.5975 237.06 83.8001C229.06 109.3 230.23 134.27 241.7 158.55C244.99 165.55 249.29 171.88 255.42 176.62C258.701 179.167 262.336 181.222 266.21 182.72C268.092 183.502 270.126 183.849 272.161 183.735C274.195 183.62 276.178 183.048 277.96 182.06C270.31 175.44 266.07 167.16 262.43 158.35L262.4 158.34Z" fill="black"/>
<path d="M291.77 71.8199C296.083 77.5835 299.399 84.0296 301.58 90.8899C280.58 87.0999 261.72 80.7999 246.91 64.7699C251.31 62.4899 255.13 60.1799 259.21 58.4799C265.8 55.7399 272.32 56.5899 278.56 59.9299C283.792 62.863 288.304 66.9247 291.77 71.8199Z" fill="#865086"/>
<path d="M296.69 115C296.702 115.634 296.588 116.265 296.355 116.855C296.121 117.445 295.773 117.983 295.33 118.438C294.888 118.893 294.359 119.255 293.776 119.505C293.192 119.754 292.565 119.885 291.93 119.89C290.564 119.894 289.246 119.381 288.243 118.453C287.239 117.525 286.624 116.253 286.52 114.89C286.499 114.254 286.609 113.621 286.843 113.03C287.077 112.439 287.43 111.902 287.88 111.453C288.33 111.004 288.868 110.652 289.46 110.419C290.051 110.186 290.685 110.078 291.32 110.1C291.999 110.049 292.681 110.138 293.324 110.36C293.967 110.583 294.558 110.934 295.061 111.393C295.564 111.851 295.968 112.408 296.248 113.028C296.528 113.649 296.678 114.319 296.69 115Z" fill="white"/>
<path d="M277.68 141.19C278.93 149.94 274.18 155.37 262.43 158.35C266.07 167.16 270.27 175.44 278 182.04C276.218 183.028 274.235 183.6 272.201 183.714C270.166 183.829 268.132 183.482 266.25 182.7C262.376 181.202 258.741 179.147 255.46 176.6C249.33 171.86 245.03 165.5 241.74 158.53C230.27 134.25 229.14 109.28 237.1 83.7799C237.501 82.5774 237.979 81.4016 238.53 80.2599C238.66 79.9799 239.03 79.8199 239.23 79.6499C243.93 83.6499 248.56 87.6499 253.32 91.5199C255.16 93.0199 254.46 94.7699 254.32 96.5199C253.423 106.482 253.672 116.514 255.06 126.42C261.13 124.73 266.66 125.37 271.38 129.42C274.864 132.428 277.109 136.622 277.68 141.19Z" fill="white"/>
<path d="M153.01 101.7C158.44 125.94 157.01 149.7 147.01 172.59C144.172 179.497 140.014 185.784 134.77 191.1C120.22 205.3 100.59 206.6 84.3101 194.42C77.0401 188.99 71.7 181.93 67.5 173.98C58.19 156.33 54.9701 137.35 56.1101 117.62C56.5301 110.23 57.92 102.91 58.96 94.89C50.28 89.89 43.51 82.84 37.96 74.61L38.8501 73.46C42.5801 75.78 46.36 78.03 50.04 80.46C53.72 82.89 57.48 85.46 61.46 88.21C62.26 86.55 62.77 85.45 63.46 83.91C49.98 76.46 41.4 65.85 41.52 49.65C43.52 53.1 45.31 56.75 47.7 59.94C50.285 63.4272 53.2166 66.6436 56.45 69.54C59.54 72.26 63.2 74.32 66.45 76.54C69.27 74.68 68.45 73.06 67.29 71.14C64.7262 66.9691 62.3895 62.6628 60.29 58.24C57.7138 52.7882 56.5351 46.781 56.8601 40.76C59.5901 40.19 60.54 42.27 61.76 43.63C66.48 48.9 71.1 54.27 75.76 59.63C76.57 60.56 77.4502 61.42 78.6802 62.72C81.7302 55.53 87.7902 52.72 94.1702 50.62C101.128 48.3092 108.66 48.4008 115.56 50.88C123.68 53.67 130.24 58.72 135.72 65.22C144.68 75.82 150 88.24 153.01 101.7ZM138.89 95.3C137.21 91.45 136.01 88.3 134.5 85.3C130.6 77.62 125.6 70.78 118.36 65.89C110.56 60.64 102.36 59.52 93.73 63.89C90.73 65.43 87.73 67.09 84.02 69.1C98.79 85.21 117.68 91.44 138.89 95.3ZM129.24 124.25C130.501 124.156 131.68 123.589 132.539 122.661C133.398 121.733 133.874 120.514 133.87 119.25C133.76 117.9 133.131 116.645 132.114 115.75C131.097 114.854 129.773 114.389 128.42 114.45C127.153 114.417 125.925 114.885 125 115.752C124.076 116.618 123.53 117.814 123.48 119.08C123.592 120.517 124.253 121.855 125.326 122.817C126.398 123.78 127.8 124.293 129.24 124.25ZM99.1201 162.55C111.23 160.25 116.03 154.4 114.54 144.74C112.95 134.36 104.96 129.18 92.1001 130.4C90.5171 119.384 90.3959 108.207 91.74 97.16C88.74 94.78 86.17 92.82 83.74 90.68C81.31 88.54 78.86 86.1 76.3 83.68C75.8728 84.2856 75.4886 84.9205 75.1501 85.58C74.6801 86.76 74.2401 87.95 73.8501 89.16C69.0917 104.109 67.8696 119.958 70.28 135.46C71.7981 146.466 75.3846 157.086 80.8501 166.76C84.9501 173.96 90.1301 180.22 97.3301 184.55C102.64 187.75 108.26 188.95 114.59 186.95C111.53 182.95 108.43 179.47 105.96 175.58C103.49 171.69 101.57 167.28 99.1201 162.55Z" fill="black"/>
<path d="M134.5 85.34C136.01 88.34 137.21 91.45 138.89 95.34C117.68 91.48 98.79 85.25 84.02 69.18C87.75 67.18 90.71 65.51 93.73 63.97C102.33 59.6 110.56 60.72 118.36 65.97C125.6 70.82 130.6 77.66 134.5 85.34Z" fill="#865086"/>
<path d="M133.87 119.25C133.874 120.514 133.398 121.733 132.539 122.661C131.68 123.589 130.501 124.156 129.24 124.25C127.8 124.293 126.398 123.78 125.326 122.817C124.253 121.855 123.592 120.517 123.48 119.08C123.53 117.814 124.076 116.618 125 115.752C125.925 114.885 127.153 114.417 128.42 114.45C129.773 114.389 131.097 114.854 132.114 115.75C133.131 116.645 133.76 117.9 133.87 119.25Z" fill="white"/>
<path d="M114.54 144.76C116.03 154.42 111.23 160.27 99.1202 162.57C101.57 167.3 103.46 171.64 105.96 175.57C108.46 179.5 111.53 182.96 114.59 186.94C108.26 188.94 102.59 187.74 97.3301 184.54C90.1301 180.21 84.9501 173.95 80.8501 166.75C75.3951 157.074 71.8189 146.454 70.3101 135.45C67.8996 119.948 69.1218 104.099 73.8802 89.1499C74.2702 87.9399 74.7102 86.7499 75.1802 85.5699C75.5187 84.9105 75.9028 84.2756 76.3301 83.6699C78.8901 86.0999 81.2501 88.4799 83.7701 90.6699C86.2901 92.8599 88.7701 94.7699 91.7701 97.1499C90.426 108.197 90.5471 119.374 92.1302 130.39C104.96 129.18 112.95 134.36 114.54 144.76Z" fill="white"/>
</g>
<defs>
<clipPath id="clip0_161_152">
<rect width="281.14" height="166.73" fill="white" transform="translate(38 36)"/>
</clipPath>
</defs>
</svg>
