<svg width="200" height="167" viewBox="0 0 200 167" fill="none" xmlns="http://www.w3.org/2000/svg">
<path d="M4.38731 0.920249C3.2387 0.154058 1.68644 0.464073 0.920249 1.61269C0.154058 2.7613 0.464073 4.31356 1.61269 5.07975L4.38731 0.920249ZM198.652 150.877C199.688 149.964 199.789 148.385 198.877 147.348L184.011 130.458C183.099 129.422 181.52 129.321 180.483 130.233C179.447 131.145 179.346 132.725 180.258 133.762L193.472 148.775L178.458 161.989C177.422 162.901 177.321 164.48 178.233 165.517C179.145 166.553 180.725 166.654 181.762 165.742L198.652 150.877ZM1.61269 5.07975C1.59111 5.06536 1.70748 5.14285 1.94412 5.46178C2.16943 5.76544 2.43865 6.19873 2.75353 6.78996C3.38594 7.97745 4.0987 9.60303 4.93839 11.6753C6.55054 15.654 8.7288 21.5539 11.4157 28.0511C16.9 41.3125 25.0801 58.5602 38.3181 75.9584C64.8662 110.849 111.543 146.056 196.841 151.495L197.159 146.505C113.329 141.16 67.98 106.685 42.2973 72.9308C29.4199 56.0066 21.4334 39.1911 16.0362 26.1403C13.2824 19.4814 11.3413 14.1631 9.57242 9.79763C8.72162 7.69791 7.92846 5.87002 7.16669 4.43966C6.46342 3.11911 5.5773 1.71404 4.38731 0.920249L1.61269 5.07975Z" fill="#FFDDFF"/>
</svg>
