<svg width="611" height="268" viewBox="0 0 611 268" fill="none" xmlns="http://www.w3.org/2000/svg">
<g clip-path="url(#clip0_161_142)">
<path d="M566.75 141.44C566.82 180.25 539.75 212.88 501.59 219.35C454.07 227.41 409.95 191.76 410.68 141.68C411.14 110.42 431.13 82.3299 460.32 71.1899C462.32 70.4299 464.01 69.0299 465.93 68.1099C468.302 66.823 470.789 65.7617 473.36 64.9399C485.26 61.8199 497.12 62.6999 508.86 65.9399C525.486 70.3764 540.178 80.1863 550.649 93.8419C561.119 107.497 566.78 124.232 566.75 141.44ZM495.69 205.76C545.4 199.49 570.35 141.95 540.58 101.68C524.38 79.7699 501.99 72.0499 475.39 75.1699C473.06 75.4399 470.58 76.0399 468.39 75.5499C466.268 75.1289 464.066 75.4354 462.14 76.4199C449.773 81.4498 439.184 90.0478 431.722 101.118C424.26 112.188 420.263 125.23 420.24 138.58C420.1 179.24 455.56 210.82 495.69 205.76Z" fill="black"/>
<path d="M540.58 101.68C570.35 141.95 545.4 199.49 495.69 205.76C455.56 210.82 420.1 179.24 420.24 138.58C420.263 125.23 424.26 112.188 431.722 101.118C439.185 90.0478 449.774 81.4498 462.14 76.4199C464.066 75.4354 466.268 75.1289 468.39 75.5499C470.58 76.0399 473.06 75.4399 475.39 75.1699C501.99 72.0799 524.36 79.7699 540.58 101.68Z" fill="#865086"/>
<path d="M301.89 138.98C302.143 143.347 301.315 147.71 299.478 151.68C297.641 155.65 294.853 159.106 291.36 161.74C286.7 165.38 280.85 165.54 275.36 162.96C267.5 159.27 262.88 152.73 260.05 144.77C259.21 142.41 259.21 139.96 261.62 138.48C263.77 137.16 265.78 138.04 267.54 139.63C270.75 142.53 274.01 145.4 277.23 148.3C278.69 149.61 280.1 150.97 281.77 152.53C285.71 149.98 286.71 146.41 288.11 143.12C288.9 140.911 289.805 138.745 290.82 136.63C292.45 133.72 294.96 132.63 297.59 133.36C300.49 134.08 301.79 136.24 301.89 138.98Z" fill="black"/>
<path d="M184.03 133.08C190.28 176.99 156.18 216.49 111.9 217.25C73.7701 217.91 40.02 187.65 36.5 149.62C36.3 147.46 36.14 145.28 36 143.53C36.21 126.47 40.4801 111.18 51.0701 98.03C53.4401 95.03 55.77 92.03 59.74 90.87C61.02 90.49 62.0101 89.14 63.1101 88.2C84.8001 69.72 109.38 63.99 136.18 74C163.36 84.16 179.9 104.08 184.03 133.08ZM173.18 142.4C173.32 117.73 159.51 94.97 137.4 85.2C113.02 74.42 89.9901 77.52 68.9001 94.01C67.8801 94.7597 66.997 95.6799 66.29 96.73C64.02 100.41 61.9602 104.23 59.6902 107.92C51.0802 121.92 47.28 136.98 50.25 153.26C56.25 186.09 83.9301 206.08 114.59 203.9C148.44 201.51 172.99 175.3 173.18 142.43V142.4Z" fill="black"/>
<path d="M137.36 85.2299C159.47 94.9999 173.28 117.76 173.14 142.43C172.95 175.3 148.4 201.51 114.55 203.93C83.8897 206.11 56.2199 186.12 50.2099 153.29C47.2099 137.01 51.0398 121.93 59.6498 107.95C61.9198 104.26 63.9797 100.44 66.2497 96.7599C66.9567 95.7098 67.8398 94.7896 68.8598 94.0399C89.9898 77.5499 113.02 74.4499 137.36 85.2299Z" fill="#865086"/>
</g>
<defs>
<clipPath id="clip0_161_142">
<rect width="530.75" height="157.49" fill="white" transform="translate(36 63)"/>
</clipPath>
</defs>
</svg>
